<mxfile host="app.diagrams.net" modified="2024-03-18T15:52:07.358Z" agent="Mozilla/5.0 (Windows NT 10.0; Win64; x64; rv:123.0) Gecko/20100101 Firefox/123.0" etag="jARULqPG_zy8u5Qtt1O8" version="24.0.7" type="github">
  <diagram id="prtHgNgQTEPvFCAcTncT" name="Page-1">
    <mxGraphModel dx="794" dy="422" grid="1" gridSize="10" guides="1" tooltips="1" connect="1" arrows="1" fold="1" page="1" pageScale="1" pageWidth="827" pageHeight="1169" math="0" shadow="0">
      <root>
        <mxCell id="0" />
        <mxCell id="1" parent="0" />
        <mxCell id="AcaWDjkYfXCfkDgr_5su-51" value="" style="edgeStyle=orthogonalEdgeStyle;rounded=0;orthogonalLoop=1;jettySize=auto;html=1;" edge="1" parent="1" source="AcaWDjkYfXCfkDgr_5su-5" target="AcaWDjkYfXCfkDgr_5su-50">
          <mxGeometry relative="1" as="geometry" />
        </mxCell>
        <mxCell id="AcaWDjkYfXCfkDgr_5su-5" value="&lt;div&gt;&lt;u&gt;&lt;b&gt;Main Problem&lt;/b&gt;&lt;/u&gt;&lt;/div&gt;&lt;div&gt;&lt;u&gt;&lt;b&gt;&lt;br&gt;&lt;/b&gt;&lt;/u&gt;&lt;/div&gt;&lt;div&gt;Baja precisión de las predicciones&lt;br&gt;&lt;/div&gt;" style="rounded=0;whiteSpace=wrap;html=1;fontSize=10;verticalAlign=top;" vertex="1" parent="1">
          <mxGeometry x="380" y="81" width="120" height="60" as="geometry" />
        </mxCell>
        <mxCell id="AcaWDjkYfXCfkDgr_5su-53" value="" style="edgeStyle=orthogonalEdgeStyle;rounded=0;orthogonalLoop=1;jettySize=auto;html=1;" edge="1" parent="1" source="AcaWDjkYfXCfkDgr_5su-50" target="AcaWDjkYfXCfkDgr_5su-52">
          <mxGeometry relative="1" as="geometry">
            <Array as="points">
              <mxPoint x="440" y="240" />
              <mxPoint x="170" y="240" />
            </Array>
          </mxGeometry>
        </mxCell>
        <mxCell id="AcaWDjkYfXCfkDgr_5su-56" value="" style="edgeStyle=orthogonalEdgeStyle;rounded=0;orthogonalLoop=1;jettySize=auto;html=1;" edge="1" parent="1" source="AcaWDjkYfXCfkDgr_5su-50" target="AcaWDjkYfXCfkDgr_5su-54">
          <mxGeometry relative="1" as="geometry">
            <Array as="points">
              <mxPoint x="440" y="240" />
              <mxPoint x="354" y="240" />
            </Array>
          </mxGeometry>
        </mxCell>
        <mxCell id="AcaWDjkYfXCfkDgr_5su-57" value="" style="edgeStyle=orthogonalEdgeStyle;rounded=0;orthogonalLoop=1;jettySize=auto;html=1;" edge="1" parent="1" source="AcaWDjkYfXCfkDgr_5su-50" target="AcaWDjkYfXCfkDgr_5su-54">
          <mxGeometry relative="1" as="geometry">
            <Array as="points">
              <mxPoint x="440" y="240" />
              <mxPoint x="354" y="240" />
            </Array>
          </mxGeometry>
        </mxCell>
        <mxCell id="AcaWDjkYfXCfkDgr_5su-60" style="edgeStyle=orthogonalEdgeStyle;rounded=0;orthogonalLoop=1;jettySize=auto;html=1;" edge="1" parent="1" source="AcaWDjkYfXCfkDgr_5su-50" target="AcaWDjkYfXCfkDgr_5su-58">
          <mxGeometry relative="1" as="geometry">
            <Array as="points">
              <mxPoint x="440" y="240" />
              <mxPoint x="530" y="240" />
            </Array>
          </mxGeometry>
        </mxCell>
        <mxCell id="AcaWDjkYfXCfkDgr_5su-61" style="edgeStyle=orthogonalEdgeStyle;rounded=0;orthogonalLoop=1;jettySize=auto;html=1;" edge="1" parent="1">
          <mxGeometry relative="1" as="geometry">
            <mxPoint x="440" y="220" as="sourcePoint" />
            <mxPoint x="710" y="280" as="targetPoint" />
            <Array as="points">
              <mxPoint x="440" y="240" />
              <mxPoint x="710" y="240" />
            </Array>
          </mxGeometry>
        </mxCell>
        <mxCell id="AcaWDjkYfXCfkDgr_5su-50" value="&lt;div style=&quot;font-size: 10px;&quot;&gt;&lt;font style=&quot;font-size: 10px;&quot;&gt;&lt;u&gt;&lt;b&gt;Objetivo 1&lt;br&gt;&lt;/b&gt;&lt;/u&gt;&lt;/font&gt;&lt;/div&gt;&lt;div style=&quot;font-size: 10px;&quot;&gt;&lt;font style=&quot;font-size: 10px;&quot;&gt;&lt;u&gt;&lt;b&gt;&lt;br&gt;&lt;/b&gt;&lt;/u&gt;&lt;/font&gt;&lt;/div&gt;&lt;div style=&quot;font-size: 10px;&quot;&gt;&lt;font style=&quot;font-size: 10px;&quot;&gt;&lt;font style=&quot;font-size: 10px;&quot;&gt;Incrementar precisión de las predicciones &amp;lt;95%&lt;/font&gt;&lt;br&gt;&lt;/font&gt;&lt;/div&gt;" style="rounded=0;whiteSpace=wrap;html=1;" vertex="1" parent="1">
          <mxGeometry x="380" y="160" width="120" height="60" as="geometry" />
        </mxCell>
        <mxCell id="AcaWDjkYfXCfkDgr_5su-64" value="" style="edgeStyle=orthogonalEdgeStyle;rounded=0;orthogonalLoop=1;jettySize=auto;html=1;" edge="1" parent="1" source="AcaWDjkYfXCfkDgr_5su-52" target="AcaWDjkYfXCfkDgr_5su-63">
          <mxGeometry relative="1" as="geometry" />
        </mxCell>
        <mxCell id="AcaWDjkYfXCfkDgr_5su-52" value="&lt;div style=&quot;font-size: 10px;&quot;&gt;&lt;font style=&quot;font-size: 10px;&quot;&gt;&lt;u&gt;&lt;b&gt;SubProblem 1&lt;br&gt;&lt;/b&gt;&lt;/u&gt;&lt;/font&gt;&lt;/div&gt;&lt;div style=&quot;font-size: 10px;&quot;&gt;&lt;font style=&quot;font-size: 10px;&quot;&gt;&lt;u&gt;&lt;b&gt;&lt;br&gt;&lt;/b&gt;&lt;/u&gt;&lt;/font&gt;&lt;/div&gt;&lt;font style=&quot;font-size: 10px;&quot;&gt;Ineficiencia en el consumo&lt;u&gt;&lt;b&gt;&lt;br&gt;&lt;/b&gt;&lt;/u&gt;&lt;/font&gt;" style="rounded=0;whiteSpace=wrap;html=1;verticalAlign=top;" vertex="1" parent="1">
          <mxGeometry x="110" y="280" width="120" height="60" as="geometry" />
        </mxCell>
        <mxCell id="AcaWDjkYfXCfkDgr_5su-66" value="" style="edgeStyle=orthogonalEdgeStyle;rounded=0;orthogonalLoop=1;jettySize=auto;html=1;" edge="1" parent="1" source="AcaWDjkYfXCfkDgr_5su-54" target="AcaWDjkYfXCfkDgr_5su-65">
          <mxGeometry relative="1" as="geometry" />
        </mxCell>
        <mxCell id="AcaWDjkYfXCfkDgr_5su-54" value="&lt;div style=&quot;font-size: 10px;&quot;&gt;&lt;font style=&quot;font-size: 10px;&quot;&gt;&lt;u&gt;&lt;b&gt;SubProblem 2&lt;br&gt;&lt;/b&gt;&lt;/u&gt;&lt;/font&gt;&lt;/div&gt;&lt;div style=&quot;font-size: 10px;&quot;&gt;&lt;font style=&quot;font-size: 10px;&quot;&gt;&lt;u&gt;&lt;b&gt;&lt;br&gt;&lt;/b&gt;&lt;/u&gt;&lt;/font&gt;&lt;/div&gt;&lt;font style=&quot;font-size: 10px;&quot;&gt;Inexactas calificaciones energéticas&lt;br&gt;&lt;/font&gt;" style="rounded=0;whiteSpace=wrap;html=1;verticalAlign=top;" vertex="1" parent="1">
          <mxGeometry x="294" y="280" width="120" height="60" as="geometry" />
        </mxCell>
        <mxCell id="AcaWDjkYfXCfkDgr_5su-68" value="" style="edgeStyle=orthogonalEdgeStyle;rounded=0;orthogonalLoop=1;jettySize=auto;html=1;" edge="1" parent="1" source="AcaWDjkYfXCfkDgr_5su-58" target="AcaWDjkYfXCfkDgr_5su-67">
          <mxGeometry relative="1" as="geometry" />
        </mxCell>
        <mxCell id="AcaWDjkYfXCfkDgr_5su-58" value="&lt;div style=&quot;font-size: 10px; line-height: 120%;&quot;&gt;&lt;font style=&quot;font-size: 10px;&quot;&gt;&lt;u&gt;&lt;b&gt;SubProblem 3&lt;br&gt;&lt;/b&gt;&lt;/u&gt;&lt;/font&gt;&lt;/div&gt;&lt;div style=&quot;font-size: 10px;&quot;&gt;&lt;font style=&quot;font-size: 10px;&quot;&gt;&lt;u&gt;&lt;b&gt;&lt;br&gt;&lt;/b&gt;&lt;/u&gt;&lt;/font&gt;&lt;/div&gt;&lt;font style=&quot;font-size: 10px;&quot;&gt;Gestión ineficiente de la flota&lt;/font&gt;" style="rounded=0;whiteSpace=wrap;html=1;" vertex="1" parent="1">
          <mxGeometry x="470" y="280" width="120" height="60" as="geometry" />
        </mxCell>
        <mxCell id="AcaWDjkYfXCfkDgr_5su-70" value="" style="edgeStyle=orthogonalEdgeStyle;rounded=0;orthogonalLoop=1;jettySize=auto;html=1;" edge="1" parent="1" source="AcaWDjkYfXCfkDgr_5su-59" target="AcaWDjkYfXCfkDgr_5su-69">
          <mxGeometry relative="1" as="geometry" />
        </mxCell>
        <mxCell id="AcaWDjkYfXCfkDgr_5su-59" value="&lt;div style=&quot;font-size: 10px;&quot;&gt;&lt;font style=&quot;font-size: 10px;&quot;&gt;&lt;u&gt;&lt;b&gt;SubProblem 4&lt;br&gt;&lt;/b&gt;&lt;/u&gt;&lt;/font&gt;&lt;/div&gt;&lt;div style=&quot;font-size: 10px;&quot;&gt;&lt;font style=&quot;font-size: 10px;&quot;&gt;&lt;u&gt;&lt;b&gt;&lt;br&gt;&lt;/b&gt;&lt;/u&gt;&lt;/font&gt;&lt;/div&gt;&lt;font style=&quot;font-size: 10px;&quot;&gt;Incumplimiento regulación sostenibilidad&lt;br&gt;&lt;/font&gt;" style="rounded=0;whiteSpace=wrap;html=1;" vertex="1" parent="1">
          <mxGeometry x="650" y="280" width="120" height="60" as="geometry" />
        </mxCell>
        <mxCell id="AcaWDjkYfXCfkDgr_5su-63" value="&lt;div style=&quot;font-size: 10px;&quot;&gt;&lt;font style=&quot;font-size: 10px;&quot;&gt;&lt;u&gt;&lt;b&gt;Objetivo negocio 2&lt;br&gt;&lt;/b&gt;&lt;/u&gt;&lt;/font&gt;&lt;/div&gt;&lt;div style=&quot;font-size: 10px;&quot;&gt;&lt;font style=&quot;font-size: 10px;&quot;&gt;&lt;u&gt;&lt;b&gt;&lt;br&gt;&lt;/b&gt;&lt;/u&gt;&lt;/font&gt;&lt;/div&gt;&lt;font style=&quot;font-size: 10px;&quot;&gt;Ineficiencia en el consumo&lt;u&gt;&lt;b&gt;&lt;br&gt;&lt;/b&gt;&lt;/u&gt;&lt;/font&gt;" style="rounded=0;whiteSpace=wrap;html=1;verticalAlign=top;" vertex="1" parent="1">
          <mxGeometry x="110" y="420" width="120" height="60" as="geometry" />
        </mxCell>
        <mxCell id="AcaWDjkYfXCfkDgr_5su-65" value="&lt;div style=&quot;font-size: 10px;&quot;&gt;&lt;font style=&quot;font-size: 10px;&quot;&gt;&lt;u&gt;&lt;b&gt;Objetivo negocio 3&lt;br&gt;&lt;/b&gt;&lt;/u&gt;&lt;/font&gt;&lt;/div&gt;&lt;div style=&quot;font-size: 10px;&quot;&gt;&lt;font style=&quot;font-size: 10px;&quot;&gt;&lt;u&gt;&lt;b&gt;&lt;br&gt;&lt;/b&gt;&lt;/u&gt;&lt;/font&gt;&lt;/div&gt;&lt;font style=&quot;font-size: 10px;&quot;&gt;Inexactas calificaciones energéticas&lt;br&gt;&lt;/font&gt;" style="rounded=0;whiteSpace=wrap;html=1;verticalAlign=top;" vertex="1" parent="1">
          <mxGeometry x="294" y="420" width="120" height="60" as="geometry" />
        </mxCell>
        <mxCell id="AcaWDjkYfXCfkDgr_5su-67" value="&lt;div style=&quot;font-size: 10px; line-height: 120%;&quot;&gt;&lt;font style=&quot;font-size: 10px;&quot;&gt;&lt;u&gt;&lt;b&gt;Objetivo negocio 4&lt;br&gt;&lt;/b&gt;&lt;/u&gt;&lt;/font&gt;&lt;/div&gt;&lt;div style=&quot;font-size: 10px;&quot;&gt;&lt;font style=&quot;font-size: 10px;&quot;&gt;&lt;u&gt;&lt;b&gt;&lt;br&gt;&lt;/b&gt;&lt;/u&gt;&lt;/font&gt;&lt;/div&gt;&lt;font style=&quot;font-size: 10px;&quot;&gt;Gestión ineficiente de la flota&lt;/font&gt;" style="rounded=0;whiteSpace=wrap;html=1;" vertex="1" parent="1">
          <mxGeometry x="470" y="420" width="120" height="60" as="geometry" />
        </mxCell>
        <mxCell id="AcaWDjkYfXCfkDgr_5su-69" value="&lt;div style=&quot;font-size: 10px;&quot;&gt;&lt;font style=&quot;font-size: 10px;&quot;&gt;&lt;u&gt;&lt;b&gt;Objetivo negocio 5&lt;br&gt;&lt;/b&gt;&lt;/u&gt;&lt;/font&gt;&lt;/div&gt;&lt;div style=&quot;font-size: 10px;&quot;&gt;&lt;font style=&quot;font-size: 10px;&quot;&gt;&lt;u&gt;&lt;b&gt;&lt;br&gt;&lt;/b&gt;&lt;/u&gt;&lt;/font&gt;&lt;/div&gt;&lt;font style=&quot;font-size: 10px;&quot;&gt;Incumplimiento regulación sostenibilidad&lt;br&gt;&lt;/font&gt;" style="rounded=0;whiteSpace=wrap;html=1;" vertex="1" parent="1">
          <mxGeometry x="650" y="420" width="120" height="60" as="geometry" />
        </mxCell>
      </root>
    </mxGraphModel>
  </diagram>
</mxfile>
